<svg width="20" height="20" viewBox="0 0 20 20" fill="none" xmlns="http://www.w3.org/2000/svg">
<path d="M16.3873 14.0093C16.1565 14.5473 15.8714 15.0602 15.5365 15.5402C15.089 16.1793 14.7215 16.621 14.4398 16.8668C14.0023 17.2685 13.5323 17.4752 13.0298 17.4868C12.6698 17.4868 12.2348 17.3843 11.7281 17.176C11.2198 16.9685 10.7531 16.8668 10.3256 16.8668C9.87812 16.8668 9.39813 16.9685 8.88396 17.176C8.37063 17.3843 7.95563 17.4935 7.63813 17.5035C7.15729 17.5243 6.67646 17.3127 6.19729 16.8668C5.89146 16.6002 5.50896 16.1418 5.04979 15.4935C4.55813 14.8027 4.15396 13.9985 3.83729 13.0843C3.49813 12.0952 3.32812 11.1385 3.32812 10.2118C3.32812 9.15102 3.55729 8.23518 4.01646 7.46852C4.36375 6.8664 4.86025 6.36388 5.45813 6.00935C6.04768 5.65574 6.7207 5.46534 7.40813 5.45768C7.79146 5.45768 8.29396 5.57602 8.91646 5.80935C9.53896 6.04268 9.93896 6.16102 10.1131 6.16102C10.2448 6.16102 10.6873 6.02185 11.4406 5.74602C12.1515 5.49018 12.7515 5.38435 13.2431 5.42602C14.5765 5.53352 15.5773 6.05852 16.2431 7.00518C15.0515 7.72768 14.4623 8.73852 14.474 10.036C14.484 11.0468 14.8515 11.8877 15.5715 12.5552C15.8898 12.8598 16.2612 13.1035 16.6673 13.2743C16.579 13.5302 16.4856 13.7743 16.3873 14.0093ZM13.3315 1.98352C13.3315 2.77518 13.0415 3.51518 12.4656 4.19935C11.769 5.01268 10.9273 5.48352 10.0148 5.40935C10.0029 5.3098 9.99701 5.20961 9.99729 5.10935C9.99729 4.34852 10.3273 3.53518 10.9165 2.86935C11.2098 2.53268 11.5831 2.25185 12.0356 2.02852C12.4873 1.80852 12.914 1.68685 13.3156 1.66602C13.3265 1.77268 13.3315 1.87852 13.3315 1.98352Z" fill="#7B7B7B"/>
</svg>
