<svg width="78" height="78" viewBox="0 0 78 78" fill="none" xmlns="http://www.w3.org/2000/svg">
<path d="M23.01 36.5625C23.3948 33.9671 24.4226 31.5092 26 29.4125L14.3975 17.8425C9.80816 23.0632 7.03688 29.6322 6.5 36.5625H23.01ZM29.4125 26C31.5124 24.4342 33.9701 23.4176 36.5625 23.0425V6.5C29.6322 7.03688 23.0632 9.80816 17.8425 14.3975L29.4125 26ZM41.4375 6.5V22.75C44.1144 23.1848 46.6334 24.3044 48.75 26L60.32 14.43C55.0601 9.79648 48.4285 7.01143 41.4375 6.5ZM26 48.75C24.4342 46.6501 23.4176 44.1924 23.0425 41.6H6.5C7.00032 48.5149 9.72527 55.0822 14.2675 60.32L26 48.75ZM36.5625 54.99C33.9671 54.6052 31.5092 53.5774 29.4125 52L17.8425 63.6025C23.0632 68.1918 29.6322 70.9631 36.5625 71.5V54.99ZM52 29.4125C53.5658 31.5124 54.5824 33.9701 54.9575 36.5625H71.2075C70.7072 29.6476 67.9822 23.0803 63.44 17.8425L52 29.4125ZM48.75 52C46.6501 53.5658 44.1924 54.5824 41.6 54.9575V71.2075C48.5149 70.7072 55.0822 67.9822 60.32 63.44L48.75 52ZM54.99 41.4375C54.6316 44.0897 53.6025 46.6065 52 48.75L63.57 60.32C68.2035 55.0601 70.9886 48.4285 71.5 41.4375H54.99Z" fill="white"/>
</svg>
