<svg width="35" height="35" viewBox="0 0 35 35" fill="none" xmlns="http://www.w3.org/2000/svg">
<path d="M17.4998 20.4167C20.7169 20.4167 23.3332 17.8004 23.3332 14.5833C23.3332 11.3663 20.7169 8.75 17.4998 8.75C14.2828 8.75 11.6665 11.3663 11.6665 14.5833C11.6665 17.8004 14.2828 20.4167 17.4998 20.4167ZM17.4998 11.6667C19.1084 11.6667 20.4165 12.9748 20.4165 14.5833C20.4165 16.1919 19.1084 17.5 17.4998 17.5C15.8913 17.5 14.5832 16.1919 14.5832 14.5833C14.5832 12.9748 15.8913 11.6667 17.4998 11.6667Z" fill="black"/>
<path d="M16.654 31.8124C16.9008 31.9887 17.1965 32.0834 17.4998 32.0834C17.8031 32.0834 18.0988 31.9887 18.3456 31.8124C18.789 31.4989 29.2088 23.9753 29.1665 14.5837C29.1665 8.15095 23.9325 2.91699 17.4998 2.91699C11.0671 2.91699 5.83314 8.15095 5.83314 14.5764C5.79084 23.9753 16.2106 31.4989 16.654 31.8124ZM17.4998 5.83366C22.3254 5.83366 26.2498 9.75803 26.2498 14.591C26.2804 21.063 19.8506 26.8745 17.4998 28.7805C15.1504 26.873 8.71918 21.0601 8.7498 14.5837C8.7498 9.75803 12.6742 5.83366 17.4998 5.83366Z" fill="black"/>
</svg>
