<svg width="20" height="20" viewBox="0 0 20 20" fill="none" xmlns="http://www.w3.org/2000/svg">
<path d="M10.0003 14.1667L10.8337 12.5V8.21499C12.2678 7.84249 13.3337 6.54832 13.3337 4.99999C13.3337 3.16166 11.8387 1.66666 10.0003 1.66666C8.16199 1.66666 6.66699 3.16166 6.66699 4.99999C6.66699 6.54832 7.73283 7.84249 9.16699 8.21499V12.5L10.0003 14.1667ZM8.33366 4.99999C8.33366 4.08082 9.08116 3.33332 10.0003 3.33332C10.9195 3.33332 11.667 4.08082 11.667 4.99999C11.667 5.91916 10.9195 6.66666 10.0003 6.66666C9.08116 6.66666 8.33366 5.91916 8.33366 4.99999Z" fill="black"/>
<path d="M13.5562 8.8025L13.112 10.4092C15.2712 11.0058 16.667 12.1533 16.667 13.3333C16.667 14.91 13.9295 16.6667 10.0003 16.6667C6.07116 16.6667 3.33366 14.91 3.33366 13.3333C3.33366 12.1533 4.72949 11.0058 6.88949 10.4083L6.44533 8.80167C3.49783 9.61667 1.66699 11.3525 1.66699 13.3333C1.66699 16.1367 5.32783 18.3333 10.0003 18.3333C14.6728 18.3333 18.3337 16.1367 18.3337 13.3333C18.3337 11.3525 16.5028 9.61667 13.5562 8.8025Z" fill="black"/>
</svg>
