<svg width="23" height="23" viewBox="0 0 23 23" fill="none" xmlns="http://www.w3.org/2000/svg">
<path d="M11.4987 7.06958C10.3235 7.06958 9.19633 7.53645 8.36529 8.36749C7.53425 9.19852 7.06738 10.3257 7.06738 11.5009C7.06738 12.6762 7.53425 13.8033 8.36529 14.6343C9.19633 15.4654 10.3235 15.9322 11.4987 15.9322C12.674 15.9322 13.8011 15.4654 14.6321 14.6343C15.4632 13.8033 15.93 12.6762 15.93 11.5009C15.93 10.3257 15.4632 9.19852 14.6321 8.36749C13.8011 7.53645 12.674 7.06958 11.4987 7.06958ZM11.4987 14.3788C10.7352 14.3788 10.003 14.0755 9.46307 13.5356C8.92319 12.9957 8.61988 12.2635 8.61988 11.5C8.61988 10.7364 8.92319 10.0042 9.46307 9.46431C10.003 8.92443 10.7352 8.62112 11.4987 8.62112C12.2622 8.62112 12.9945 8.92443 13.5344 9.46431C14.0742 10.0042 14.3776 10.7364 14.3776 11.5C14.3776 12.2635 14.0742 12.9957 13.5344 13.5356C12.9945 14.0755 12.2622 14.3788 11.4987 14.3788Z" fill="white"/>
<path d="M16.1053 7.9397C16.6759 7.9397 17.1384 7.47717 17.1384 6.90662C17.1384 6.33606 16.6759 5.87354 16.1053 5.87354C15.5348 5.87354 15.0723 6.33606 15.0723 6.90662C15.0723 7.47717 15.5348 7.9397 16.1053 7.9397Z" fill="white"/>
<path d="M19.6775 5.85647C19.4556 5.28356 19.1166 4.76328 18.6821 4.32894C18.2476 3.8946 17.7272 3.55577 17.1542 3.33413C16.4837 3.08243 15.7753 2.94633 15.0593 2.93163C14.1364 2.89138 13.8441 2.87988 11.5039 2.87988C9.16362 2.87988 8.86366 2.87988 7.94845 2.93163C7.23295 2.94558 6.52509 3.08171 5.85545 3.33413C5.28231 3.55551 4.76177 3.89425 4.32723 4.32862C3.89269 4.76299 3.55376 5.28341 3.33216 5.85647C3.08041 6.52693 2.94463 7.23535 2.93062 7.95138C2.88941 8.8733 2.87695 9.16559 2.87695 11.5068C2.87695 13.847 2.87695 14.1451 2.93062 15.0622C2.94499 15.779 3.08012 16.4863 3.33216 17.1581C3.55438 17.7309 3.89365 18.2511 4.32829 18.6855C4.76293 19.1198 5.28339 19.4586 5.85641 19.6804C6.52479 19.9422 7.23293 20.0881 7.95037 20.1117C8.87324 20.1519 9.16554 20.1644 11.5058 20.1644C13.846 20.1644 14.146 20.1644 15.0612 20.1117C15.7772 20.0971 16.4855 19.9613 17.1561 19.7101C17.729 19.488 18.2492 19.1489 18.6837 18.7144C19.1181 18.2799 19.4573 17.7597 19.6794 17.1868C19.9315 16.516 20.0666 15.8088 20.081 15.0919C20.1222 14.17 20.1346 13.8777 20.1346 11.5365C20.1346 9.1953 20.1346 8.89822 20.081 7.98109C20.0698 7.25494 19.9333 6.53616 19.6775 5.85647ZM18.5102 14.9913C18.5041 15.5436 18.4033 16.0907 18.2122 16.609C18.0683 16.9816 17.848 17.3201 17.5654 17.6024C17.2828 17.8848 16.9443 18.105 16.5715 18.2487C16.059 18.4389 15.5177 18.5397 14.9711 18.5467C14.0607 18.5889 13.8039 18.5994 11.4694 18.5994C9.13295 18.5994 8.89433 18.5994 7.96666 18.5467C7.42034 18.54 6.87926 18.4392 6.3672 18.2487C5.99315 18.1059 5.65325 17.8861 5.36947 17.6037C5.0857 17.3212 4.86438 16.9823 4.71983 16.609C4.53146 16.0963 4.43071 15.5556 4.42179 15.0095C4.38058 14.0991 4.37099 13.8423 4.37099 11.5078C4.37099 9.1723 4.37099 8.93367 4.42179 8.00505C4.42798 7.45307 4.52879 6.90624 4.71983 6.38834C5.01212 5.63222 5.61108 5.03709 6.3672 4.74767C6.87952 4.55806 7.42044 4.45726 7.96666 4.44963C8.87804 4.40842 9.13391 4.39692 11.4694 4.39692C13.8048 4.39692 14.0444 4.39692 14.9711 4.44963C15.5178 4.45621 16.0592 4.55703 16.5715 4.74767C16.9443 4.89169 17.2828 5.11203 17.5653 5.39458C17.8478 5.67712 18.0682 6.01562 18.2122 6.38834C18.4006 6.901 18.5013 7.4417 18.5102 7.9878C18.5515 8.89917 18.562 9.15505 18.562 11.4905C18.562 13.825 18.562 14.0761 18.5208 14.9923H18.5102V14.9913Z" fill="white"/>
</svg>
