<svg width="23" height="23" viewBox="0 0 23 23" fill="none" xmlns="http://www.w3.org/2000/svg">
<path d="M19.1667 2.875H3.83333C3.57917 2.875 3.33541 2.97597 3.15569 3.15569C2.97597 3.33541 2.875 3.57917 2.875 3.83333V19.1667C2.875 19.4208 2.97597 19.6646 3.15569 19.8443C3.33541 20.024 3.57917 20.125 3.83333 20.125H19.1667C19.4208 20.125 19.6646 20.024 19.8443 19.8443C20.024 19.6646 20.125 19.4208 20.125 19.1667V3.83333C20.125 3.57917 20.024 3.33541 19.8443 3.15569C19.6646 2.97597 19.4208 2.875 19.1667 2.875ZM7.99154 17.573H5.43087V9.34087H7.99154V17.573ZM6.71121 8.21675C6.31776 8.21675 5.94043 8.06045 5.66222 7.78224C5.38401 7.50403 5.22771 7.1267 5.22771 6.73325C5.22771 6.3398 5.38401 5.96247 5.66222 5.68426C5.94043 5.40605 6.31776 5.24975 6.71121 5.24975C7.10466 5.24975 7.48199 5.40605 7.7602 5.68426C8.03841 5.96247 8.19471 6.3398 8.19471 6.73325C8.19471 7.1267 8.03841 7.50403 7.7602 7.78224C7.48199 8.06045 7.10466 8.21675 6.71121 8.21675ZM17.5739 17.573H15.0161V13.57C15.0161 12.6155 14.9989 11.3879 13.686 11.3879C12.3539 11.3879 12.1517 12.4286 12.1517 13.5029V17.5739H9.59579V9.34183H12.0491V10.4669H12.0846C12.4248 9.82004 13.2605 9.13771 14.5034 9.13771C17.0947 9.13771 17.573 10.8416 17.573 13.0592L17.5739 17.573Z" fill="white"/>
</svg>
