<svg width="23" height="23" viewBox="0 0 23 23" fill="none" xmlns="http://www.w3.org/2000/svg">
<path d="M11.5093 1.93481C6.24324 1.93481 1.93457 6.24348 1.93457 11.5095C1.93457 16.7746 6.24324 21.0833 11.5093 21.0833C16.7744 21.0833 21.083 16.7746 21.083 11.5095C21.083 6.24348 16.8223 1.93481 11.5093 1.93481ZM15.9128 15.7693C15.7221 16.0559 15.3867 16.1526 15.0982 15.9619C12.8471 14.5724 10.0229 14.2849 6.67161 15.0506C6.33811 15.1483 6.05061 14.9087 5.95478 14.6203C5.85799 14.2849 6.09757 13.9993 6.38603 13.9025C10.0229 13.0879 13.1835 13.4243 15.6723 14.9566C16.0077 15.0994 16.0556 15.4818 15.9128 15.7693ZM17.0628 13.1368C16.8223 13.4712 16.392 13.615 16.0556 13.3754C13.471 11.798 9.54661 11.3169 6.53074 12.2752C6.14932 12.372 5.71615 12.1794 5.62128 11.798C5.52449 11.4127 5.71711 10.9815 6.09949 10.8856C9.59357 9.8334 13.9032 10.3605 16.8702 12.1804C17.1577 12.3231 17.3014 12.8014 17.0628 13.1368ZM17.1577 10.4544C14.0939 8.63644 8.97161 8.44477 6.05061 9.35615C5.82848 9.42016 5.59022 9.39612 5.38534 9.28904C5.18046 9.18196 5.02471 9.00007 4.95045 8.78115C4.8853 8.55874 4.90866 8.31977 5.01565 8.11419C5.12263 7.90861 5.30496 7.75236 5.52449 7.67811C8.9237 6.67281 14.5252 6.86352 18.0681 8.97281C18.4984 9.21144 18.6422 9.78644 18.4026 10.2167C18.163 10.5521 17.5889 10.694 17.1577 10.4544Z" fill="white"/>
</svg>
