<svg width="139" height="28" viewBox="0 0 139 28" fill="none" xmlns="http://www.w3.org/2000/svg">
<path d="M26.5197 10.7088C26.4437 10.4929 26.3039 10.3031 26.1175 10.1629C25.9311 10.0228 25.7063 9.93838 25.4708 9.92018L18.5821 9.39168L15.6012 3.02052C15.5062 2.81531 15.3518 2.64103 15.1565 2.51868C14.9613 2.39634 14.7335 2.33118 14.5007 2.33105C14.268 2.33093 14.0401 2.39585 13.8447 2.51799C13.6493 2.64012 13.4947 2.81425 13.3996 3.01935L10.4186 9.39168L3.5299 9.92018C3.29845 9.93789 3.07718 10.0196 2.89257 10.1555C2.70796 10.2915 2.56782 10.4759 2.48891 10.6867C2.41001 10.8975 2.39568 11.1259 2.44765 11.3443C2.49962 11.5628 2.61567 11.7622 2.78194 11.9187L7.87265 16.7102L6.07223 24.2375C6.01756 24.4654 6.03509 24.7038 6.12252 24.9219C6.20996 25.14 6.36328 25.3278 6.56258 25.4607C6.76188 25.5936 6.99796 25.6657 7.24019 25.6674C7.48242 25.6692 7.71961 25.6007 7.92098 25.4707L14.5004 21.2357L21.0797 25.4707C21.2856 25.6026 21.5283 25.6706 21.7753 25.6653C22.0223 25.6601 22.2617 25.582 22.4613 25.4414C22.661 25.3009 22.8112 25.1047 22.892 24.8793C22.9727 24.6538 22.9799 24.4099 22.9128 24.1803L20.7027 16.7137L26.1837 11.9514C26.5426 11.6387 26.6743 11.151 26.5197 10.7088Z" fill="#FFA235"/>
<rect width="28" height="28" transform="translate(29)" fill="white"/>
<path d="M54.6045 10.7088C54.5312 10.4929 54.3962 10.3031 54.2163 10.1629C54.0363 10.0228 53.8192 9.93838 53.5919 9.92018L46.9407 9.39168L44.0625 3.02052C43.9709 2.81531 43.8218 2.64103 43.6333 2.51868C43.4447 2.39634 43.2248 2.33118 43.0001 2.33105C42.7753 2.33093 42.5554 2.39585 42.3667 2.51799C42.178 2.64012 42.0288 2.81425 41.9369 3.01935L39.0587 9.39168L32.4075 9.92018C32.1841 9.93789 31.9704 10.0196 31.7922 10.1555C31.6139 10.2915 31.4786 10.4759 31.4024 10.6867C31.3263 10.8975 31.3124 11.1259 31.3626 11.3443C31.4128 11.5628 31.5248 11.7622 31.6854 11.9187L36.6005 16.7102L34.8622 24.2375C34.8094 24.4654 34.8263 24.7038 34.9108 24.9219C34.9952 25.14 35.1432 25.3278 35.3356 25.4607C35.5281 25.5936 35.756 25.6657 35.9899 25.6674C36.2238 25.6692 36.4528 25.6007 36.6472 25.4707L42.9997 21.2357L49.3522 25.4707C49.5509 25.6026 49.7853 25.6706 50.0238 25.6653C50.2623 25.6601 50.4934 25.582 50.6862 25.4414C50.8789 25.3009 51.024 25.1047 51.1019 24.8793C51.1799 24.6538 51.1869 24.4099 51.122 24.1803L48.9882 16.7137L54.2802 11.9514C54.6267 11.6387 54.7539 11.151 54.6045 10.7088Z" fill="#FFA235"/>
<path d="M80.5197 10.7088C80.4437 10.4929 80.3039 10.3031 80.1175 10.1629C79.9311 10.0228 79.7063 9.93838 79.4708 9.92018L72.5821 9.39168L69.6012 3.02052C69.5062 2.81531 69.3518 2.64103 69.1565 2.51868C68.9613 2.39634 68.7335 2.33118 68.5007 2.33105C68.268 2.33093 68.0401 2.39585 67.8447 2.51799C67.6493 2.64012 67.4947 2.81425 67.3996 3.01935L64.4186 9.39168L57.5299 9.92018C57.2984 9.93789 57.0772 10.0196 56.8926 10.1555C56.708 10.2915 56.5678 10.4759 56.4889 10.6867C56.41 10.8975 56.3957 11.1259 56.4476 11.3443C56.4996 11.5628 56.6157 11.7622 56.7819 11.9187L61.8726 16.7102L60.0722 24.2375C60.0176 24.4654 60.0351 24.7038 60.1225 24.9219C60.21 25.14 60.3633 25.3278 60.5626 25.4607C60.7619 25.5936 60.998 25.6657 61.2402 25.6674C61.4824 25.6692 61.7196 25.6007 61.921 25.4707L68.5004 21.2357L75.0797 25.4707C75.2856 25.6026 75.5283 25.6706 75.7753 25.6653C76.0223 25.6601 76.2617 25.582 76.4613 25.4414C76.661 25.3009 76.8112 25.1047 76.892 24.8793C76.9727 24.6538 76.9799 24.4099 76.9128 24.1803L74.7027 16.7137L80.1837 11.9514C80.5426 11.6387 80.6743 11.151 80.5197 10.7088Z" fill="#FFA235"/>
<path d="M108.605 10.7088C108.531 10.4929 108.396 10.3031 108.216 10.1629C108.036 10.0228 107.819 9.93838 107.592 9.92018L100.941 9.39168L98.0625 3.02052C97.9709 2.81531 97.8218 2.64103 97.6333 2.51868C97.4447 2.39634 97.2248 2.33118 97.0001 2.33105C96.7753 2.33093 96.5554 2.39585 96.3667 2.51799C96.178 2.64012 96.0288 2.81425 95.9369 3.01935L93.0587 9.39168L86.4075 9.92018C86.1841 9.93789 85.9704 10.0196 85.7922 10.1555C85.6139 10.2915 85.4786 10.4759 85.4024 10.6867C85.3263 10.8975 85.3124 11.1259 85.3626 11.3443C85.4128 11.5628 85.5248 11.7622 85.6854 11.9187L90.6005 16.7102L88.8622 24.2375C88.8094 24.4654 88.8263 24.7038 88.9108 24.9219C88.9952 25.14 89.1432 25.3278 89.3356 25.4607C89.5281 25.5936 89.756 25.6657 89.9899 25.6674C90.2238 25.6692 90.4528 25.6007 90.6472 25.4707L96.9997 21.2357L103.352 25.4707C103.551 25.6026 103.785 25.6706 104.024 25.6653C104.262 25.6601 104.493 25.582 104.686 25.4414C104.879 25.3009 105.024 25.1047 105.102 24.8793C105.18 24.6538 105.187 24.4099 105.122 24.1803L102.988 16.7137L108.28 11.9514C108.627 11.6387 108.754 11.151 108.605 10.7088Z" fill="#FFA235"/>
<path d="M116.862 24.2375C116.822 24.4086 116.822 24.5866 116.86 24.758C116.899 24.9295 116.976 25.0899 117.085 25.2274C117.194 25.3649 117.334 25.4759 117.492 25.5519C117.65 25.628 117.824 25.6672 118 25.6667C118.23 25.6667 118.455 25.5985 118.647 25.4707L125 21.2357L131.352 25.4707C131.551 25.6026 131.785 25.6706 132.024 25.6653C132.262 25.6601 132.493 25.582 132.686 25.4414C132.879 25.3009 133.024 25.1047 133.102 24.8793C133.18 24.6538 133.187 24.4099 133.122 24.1803L130.988 16.7137L136.28 11.9514C136.45 11.7987 136.571 11.5998 136.628 11.3791C136.686 11.1584 136.678 10.9257 136.604 10.7097C136.531 10.4937 136.396 10.3039 136.216 10.1638C136.036 10.0237 135.819 9.9394 135.592 9.92135L128.941 9.39168L126.063 3.02052C125.971 2.81531 125.822 2.64103 125.633 2.51868C125.445 2.39634 125.225 2.33118 125 2.33105C124.775 2.33093 124.555 2.39585 124.367 2.51799C124.178 2.64012 124.029 2.81425 123.937 3.01935L121.059 9.39168L114.408 9.92018C114.184 9.93789 113.97 10.0196 113.792 10.1555C113.614 10.2915 113.479 10.4759 113.402 10.6867C113.326 10.8975 113.312 11.1259 113.363 11.3443C113.413 11.5628 113.525 11.7622 113.685 11.9187L118.602 16.7102L116.862 24.2375ZM125 6.33385L127.382 11.6083L128.068 11.6632L132.703 12.0307L128.887 15.4653L128.886 15.4677L128.346 15.953L128.545 16.6495V16.653L130.007 21.7689L125 18.431V6.33385Z" fill="#FFA235"/>
</svg>
