<svg width="35" height="35" viewBox="0 0 35 35" fill="none" xmlns="http://www.w3.org/2000/svg">
<path d="M17.5003 20.4167C20.7174 20.4167 23.3337 17.8004 23.3337 14.5833C23.3337 11.3663 20.7174 8.75 17.5003 8.75C14.2832 8.75 11.667 11.3663 11.667 14.5833C11.667 17.8004 14.2832 20.4167 17.5003 20.4167ZM17.5003 11.6667C19.1089 11.6667 20.417 12.9748 20.417 14.5833C20.417 16.1919 19.1089 17.5 17.5003 17.5C15.8918 17.5 14.5837 16.1919 14.5837 14.5833C14.5837 12.9748 15.8918 11.6667 17.5003 11.6667Z" fill="black"/>
<path d="M16.654 31.812C16.9008 31.9883 17.1965 32.0831 17.4998 32.0831C17.8031 32.0831 18.0988 31.9883 18.3456 31.812C18.789 31.4985 29.2088 23.975 29.1665 14.5833C29.1665 8.15058 23.9325 2.91663 17.4998 2.91663C11.0671 2.91663 5.83314 8.15058 5.83314 14.576C5.79084 23.975 16.2106 31.4985 16.654 31.812ZM17.4998 5.83329C22.3254 5.83329 26.2498 9.75767 26.2498 14.5906C26.2804 21.0627 19.8506 26.8741 17.4998 28.7802C15.1504 26.8727 8.71918 21.0598 8.7498 14.5833C8.7498 9.75767 12.6742 5.83329 17.4998 5.83329Z" fill="black"/>
</svg>
